<svg width="19" height="19" viewBox="0 0 19 19" fill="none" xmlns="http://www.w3.org/2000/svg">
<path fill-rule="evenodd" clip-rule="evenodd" d="M7.28364 5.43218C8.06155 5.02853 8.94694 4.88046 9.81386 5.00901C10.6982 5.14014 11.5168 5.5522 12.149 6.18433C12.7811 6.81646 13.1931 7.63513 13.3243 8.51943C13.4528 9.38635 13.3048 10.2717 12.9011 11.0497C12.4975 11.8276 11.8588 12.4584 11.076 12.8524C10.2931 13.2464 9.40599 13.3836 8.54072 13.2444C7.67545 13.1051 6.87611 12.6966 6.2564 12.0769C5.63669 11.4572 5.22817 10.6578 5.08893 9.79257C4.9497 8.92729 5.08685 8.04015 5.48087 7.25732C5.87489 6.47448 6.50572 5.83582 7.28364 5.43218ZM9.56939 6.65765C9.04924 6.58052 8.518 6.66936 8.05126 6.91155C7.58451 7.15374 7.20601 7.53693 6.96959 8.00663C6.73318 8.47633 6.65089 9.00862 6.73443 9.52778C6.81797 10.0469 7.06309 10.5265 7.43491 10.8984C7.80674 11.2702 8.28634 11.5153 8.80551 11.5989C9.32467 11.6824 9.85695 11.6001 10.3267 11.3637C10.7964 11.1273 11.1796 10.7488 11.4217 10.282C11.6639 9.81528 11.7528 9.28405 11.6756 8.7639C11.597 8.23332 11.3497 7.74212 10.9704 7.36284C10.5912 6.98356 10.1 6.73633 9.56939 6.65765Z" fill="#12F7D6"/>
<path d="M13.75 3.75C13.2898 3.75 12.9167 4.1231 12.9167 4.58333C12.9167 5.04357 13.2898 5.41667 13.75 5.41667H13.7583C14.2186 5.41667 14.5917 5.04357 14.5917 4.58333C14.5917 4.1231 14.2186 3.75 13.7583 3.75H13.75Z" fill="#12F7D6"/>
<path fill-rule="evenodd" clip-rule="evenodd" d="M0 5C0 2.23858 2.23858 0 5 0H13.3333C16.0948 0 18.3333 2.23858 18.3333 5V13.3333C18.3333 16.0948 16.0948 18.3333 13.3333 18.3333H5C2.23858 18.3333 0 16.0948 0 13.3333V5ZM5 1.66667C3.15905 1.66667 1.66667 3.15905 1.66667 5V13.3333C1.66667 15.1743 3.15905 16.6667 5 16.6667H13.3333C15.1743 16.6667 16.6667 15.1743 16.6667 13.3333V5C16.6667 3.15905 15.1743 1.66667 13.3333 1.66667H5Z" fill="#12F7D6"/>
</svg>
